<?xml version="1.0" encoding="utf-8"?>
<!-- Generator: Adobe Illustrator 28.2.0, SVG Export Plug-In . SVG Version: 6.00 Build 0)  -->
<svg version="1.1" id="Layer_1" xmlns="http://www.w3.org/2000/svg" xmlns:xlink="http://www.w3.org/1999/xlink" x="0px" y="0px"
	 viewBox="0 0 20 18" style="enable-background:new 0 0 20 18;" xml:space="preserve">
<style type="text/css">
	.st0{fill:#FFFFFF;}
</style>
<path class="st0" d="M1,0.8h18c0.3,0,0.5,0.1,0.7,0.3C19.9,1.2,20,1.4,20,1.7v14.7c0,0.2-0.1,0.5-0.3,0.6s-0.4,0.3-0.7,0.3H1
	c-0.3,0-0.5-0.1-0.7-0.3C0.1,16.8,0,16.6,0,16.3V1.7C0,1.4,0.1,1.2,0.3,1C0.5,0.8,0.7,0.8,1,0.8z M18,4.6l-7.9,6.5L2,4.6v10.8h16
	V4.6z M2.5,2.6l7.6,6.1l7.4-6.1H2.5z"/>
</svg>
